<?xml version="1.0" encoding="utf-8"?>
<!-- Generator: Adobe Illustrator 25.2.0, SVG Export Plug-In . SVG Version: 6.00 Build 0)  -->
<svg version="1.1" id="Layer_1" xmlns="http://www.w3.org/2000/svg" xmlns:xlink="http://www.w3.org/1999/xlink" x="0px" y="0px"
	 viewBox="0 0 1762.5 2000" style="enable-background:new 0 0 1762.5 2000;" xml:space="preserve">
<style type="text/css">
	.st0{fill:#E34E26;}
	.st1{fill:#EF662A;}
	.st2{fill:#FFFFFF;}
	.st3{fill:#EBEBEB;}
</style>
<g id="Logo_artwork">
</g>
<g id="Guides_to_delete">
	<g>
		<polygon class="st0" points="160.5,1800 0,0 1762.5,0 1601.8,1800.1 880.8,2000 		"/>
		<polygon class="st1" points="881.2,147.1 881.2,1847.1 1464.3,1685.5 1601.6,147.1 		"/>
		<polygon class="st2" points="328.3,367.9 387.8,1035.5 1153,1035.5 1127.3,1321.9 881,1388.5 635.1,1322 618.6,1138.1 397,1138.1 
			428.7,1492.5 880.9,1618.1 1333.7,1492.5 1394.4,814.8 589.7,814.8 569.5,588.7 1413.7,588.7 1414.4,588.7 1434.2,367.9 		"/>
		<g>
			<polygon class="st3" points="881.2,367.9 328.3,367.9 387.8,1035.5 881.2,1035.5 881.2,814.8 589.7,814.8 569.5,588.7 
				881.2,588.7 			"/>
			<polygon class="st3" points="881.2,1388.4 881,1388.5 635.1,1322 618.6,1138.1 397,1138.1 428.7,1492.5 880.9,1618.1 881.2,1618 
							"/>
		</g>
	</g>
</g>
</svg>
