<?xml version="1.0" encoding="utf-8"?>
<!-- Generator: Adobe Illustrator 25.2.0, SVG Export Plug-In . SVG Version: 6.00 Build 0)  -->
<svg version="1.1" id="svg4525" xmlns="http://www.w3.org/2000/svg" xmlns:xlink="http://www.w3.org/1999/xlink" x="0px" y="0px"
	 viewBox="0 0 2199 2500" style="enable-background:new 0 0 2199 2500;" xml:space="preserve">
<style type="text/css">
	.st0{fill:#FFFFFF;}
	.st1{fill:#D4B830;}
	.st2{fill:#FDD83C;}
</style>
<rect x="340" y="191.6" class="st0" width="1600" height="2006.3"/>
<g id="g5193" transform="translate(4.988 -113.385)">
	<path id="path5113" class="st1" d="M199,2360.6L-5.1,113.9l2199,0.9l-202.4,2244l-898.8,253.8L199,2360.6z M1826,2237.9
		l170.7-1924.2h-900.5L1103,2436L1826,2237.9z M1012.1,595.8H793.4l-2.6,1151.6l-424.5-115.8l0.9,263.2l644.9,174.1L1012.1,595.8
		L1012.1,595.8z"/>
	<path id="path5117" class="st2" d="M1096.1,305h900.5L1826,2241.3l-729.8,199.3L1096.1,305L1096.1,305z M1779.7,1916.9l59.2-724
		l-437.4,49.2V855.5l466.6-1.7l18.9-264l-704.1,3.5l9.4,961.3l425.4-73.3l-6,214l-428.8,114.8l4.3,262.3L1779.7,1916.9
		L1779.7,1916.9z"/>
</g>
</svg>
