<svg xmlns="http://www.w3.org/2000/svg" viewBox="0 0 439.37 425.2">
    <defs>
        <style>
            .cls-1 {
                fill: none;
                stroke-linecap: round;
                stroke-linejoin: round;
                stroke-width: 24px;
            }
        </style>
    </defs>
    <g id="Layer_2" data-name="Layer 2">
        <g id="Layer_1-2" data-name="Layer 1">
            <path class="cls-1"
                d="M121.75,413.83c17.49,12.84,77.76-.75,97.94-74.63,20.17,73.88,80.44,87.47,97.93,74.63,24.41-17.91,9.4-43.49,9.4-43.49s19.45,22.32,43.86,4.41c17.49-12.83,23.33-74.91-40-117.13,75.79,3.44,107.2-50.25,100.52-71-9.32-29-38.05-22.47-38.05-22.47s27-11.78,17.71-40.76c-6.68-20.76-63.34-45.56-122.66,2.22C315.07,53.85,274.22,7.09,252.6,7.09c-30.17,0-32.91,29.6-32.91,29.6s-2.75-29.6-32.92-29.6c-18.29,0-50.37,33.49-43.63,87.28" />
            <path class="cls-1"
                d="M151,125.59c-59.32-47.78-116-23-122.66-2.22C19,152.35,46,164.13,46,164.13s-28.73-6.5-38,22.47c-6.68,20.77,24.73,74.46,100.52,71-63.32,42.22-57.48,104.3-40,117.13,24.41,17.91,43.86-4.41,43.86-4.41" />
            <path class="cls-1"
                d="M255.05,206.05c20.14-13.42,18.28-33.17,12.72-37.25l-.23-.16q-8.37-5.89-16.48-12.09l-.23-.17c-5.56-4.09-24.73.23-31.14,23.73-6.42-23.5-25.59-27.82-31.15-23.73l-.23.17q-8.13,6.21-16.47,12.09l-.24.16c-5.56,4.08-7.42,23.83,12.72,37.25-24.1-1.09-34.09,16-32,22.59l.09.27q3.34,9.72,6.3,19.56c0,.09,0,.19.08.28,2.13,6.6,20.14,14.49,39-.71-8.48,22.82,4.51,37.69,11.39,37.69h.28q10.19-.2,20.37,0h.28c6.88,0,19.87-14.87,11.39-37.69,18.87,15.2,36.88,7.31,39,.71,0-.09.06-.19.08-.28" />
            <line class="cls-1" x1="219.69" y1="180.11" x2="219.69" y2="107.29" />
            <line class="cls-1" x1="184.09" y1="205.9" x2="115.52" y2="183.39" />
            <line class="cls-1" x1="197.37" y1="248.05" x2="155" y2="306.96" />
            <line class="cls-1" x1="241.18" y1="248.32" x2="283.55" y2="307.23" />
            <line class="cls-1" x1="254.97" y1="206.33" x2="323.53" y2="183.83" />
        </g>
    </g>
</svg>