<?xml version="1.0" encoding="utf-8"?>
<!-- Generator: Adobe Illustrator 25.2.0, SVG Export Plug-In . SVG Version: 6.00 Build 0)  -->
<svg version="1.1" id="Layer_1" xmlns="http://www.w3.org/2000/svg" xmlns:xlink="http://www.w3.org/1999/xlink" x="0px" y="0px"
	 viewBox="0 0 566.9 283.5" style="enable-background:new 0 0 566.9 283.5;" xml:space="preserve">
<path d="M21.3,113.4C9.5,113.4,0,122.9,0,134.7v127.6c0,11.7,9.5,21.3,21.3,21.3h411.1c11.7,0,21.3-9.5,21.3-21.3v-14.2
	c0-11.7,9.5-21.3,21.3-21.3h35.4h35.4c11.7,0,21.3-9.5,21.3-21.3V21.3C567,9.5,557.5,0,545.7,0H191.4c-11.7,0-21.3,9.5-21.3,21.3
	v35.4v35.4c0,11.7-9.5,21.3-21.3,21.3H21.3z"/>
</svg>
