<svg xmlns="http://www.w3.org/2000/svg" viewBox="0 0 566.93 283.46"><defs><style>.cls-1{fill:#fff;}</style></defs><g id="Layer_2" data-name="Layer 2"><g id="Layer_1-2" data-name="Layer 1"><path class="cls-1" d="M453.54,255.12V184.25a14.17,14.17,0,0,1,14.18-14.17h70.86a28.35,28.35,0,0,0,28.35-28.35V28.35A28.35,28.35,0,0,0,538.58,0H198.43a28.35,28.35,0,0,0-28.35,28.35V99.21a14.18,14.18,0,0,1-14.17,14.18H28.35A28.34,28.34,0,0,0,0,141.73V255.12a28.34,28.34,0,0,0,28.35,28.34H425.2A28.34,28.34,0,0,0,453.54,255.12Z"/></g></g></svg>